<svg xmlns="http://www.w3.org/2000/svg" width="1200" height="630" viewBox="0 0 1200 630">
  <defs><pattern id="road" width="44" height="44" patternUnits="userSpaceOnUse" patternTransform="rotate(-34)"><rect width="44" height="44" fill="#173d52"/><rect width="8" height="44" fill="#22506a" opacity=".65"/></pattern><linearGradient id="car" x1="0" y1="0" x2="0" y2="1"><stop stop-color="#2f9ed1"/><stop offset="1" stop-color="#1477ad"/></linearGradient></defs>
  <rect width="1200" height="630" fill="url(#road)"/><rect x="57" y="55" width="1086" height="520" rx="36" fill="#eef7fb"/><rect x="57" y="55" width="1086" height="18" rx="9" fill="#ff7448"/>
  <text x="130" y="172" fill="#ff7448" font-family="Arial, sans-serif" font-size="30" font-weight="800" letter-spacing="5">ENGLISH VOCABULARY APP</text><text x="130" y="275" fill="#173d52" font-family="Arial, sans-serif" font-size="86" font-weight="900">RoVoCar</text><text x="134" y="353" fill="#173d52" font-family="Arial, sans-serif" font-size="52" font-weight="900">단어를 싣고 출발!</text>
  <text x="134" y="414" fill="#416376" font-family="Arial, sans-serif" font-size="31" font-weight="700">나만의 단어장을 만들고</text><text x="134" y="458" fill="#416376" font-family="Arial, sans-serif" font-size="31" font-weight="700">두 가지 주행 모드로 반복해 보세요.</text><rect x="129" y="495" width="342" height="42" rx="21" fill="#ff7448"/><text x="164" y="524" fill="#fff" font-family="Arial, sans-serif" font-size="21" font-weight="800" letter-spacing="2">LOAD WORDS · DRIVE</text>
  <g transform="translate(710 135) scale(1.8)" stroke="#16384a" stroke-linejoin="round"><path d="M57 58 74 25h72l18 33" fill="#e9f7fc" stroke-width="7"/><rect x="38" y="55" width="144" height="87" rx="30" fill="url(#car)" stroke-width="7"/><path d="M77 55 87 34h46l11 21" fill="#bfeafa" stroke-width="6"/><rect x="54" y="78" width="112" height="47" rx="20" fill="#f8fdff" stroke-width="6"/><circle cx="83" cy="98" r="7"/><circle cx="137" cy="98" r="7"/><path d="M93 111q17 13 34 0" fill="none" stroke="#e84a42" stroke-width="6" stroke-linecap="round"/><path d="M38 79 19 91v27l22 2M182 79l19 12v27l-22 2" fill="#f4c543" stroke-width="7"/><path d="M70 142v13M150 142v13" fill="none" stroke-width="18" stroke-linecap="round"/><path d="M110 24V8M98 14h24" fill="none" stroke="#e84a42" stroke-width="7" stroke-linecap="round"/><circle cx="110" cy="8" r="5" fill="#f4c543" stroke-width="4"/></g>
</svg>
